# xmcd
#
# Track frame offsets:
#	150
#	23638
#	40251
#	57829
#	73789
#	95219
#	112165
#	129690
#	146615
#	162743
#	182148
#	199563
#	216039
#	229857
#
# Disc length: 3283 seconds
#
# Revision: 0
# Processed by: cddbd v1.4PL0 Copyright (c) Steve Scherf et al.
# Submitted via: audiograbber 1.80.04
#
DISCID=d60cd10e
DTITLE=Various Artist - Cadoul Visat
DYEAR=1900
DGENRE=
TTITLE0=O, ce veste - Nicolae Furdui Iancu and Others
TTITLE1=Pan la Viflaim - Benone Sinulescu and Ro-Mania
TTITLE2=Ziurel de ziua - Veta Biris and Double D
TTITLE3=Galbena gutuie - Cristina Turcu and Deja Vu
TTITLE4=Colinda de Craciun - Anastasia Lazariuc and Trinity
TTITLE5=Astazi e Craciun - Gabriela Nistor and 'N5
TTITLE6=Crenguta cu flori - Daniela Condurache and Alina
TTITLE7=Trei pacurarei - Ionut Fulea and Etno
TTITLE8=Deschide usa crestine - Nicolae Furdui Iancu and X-tra
TTITLE9=Cadoul Visat - K1 and Di Stefano
TTITLE10=Iarna-i grea - RO-MANIA
TTITLE11=Nu esti singur - Double D
TTITLE12=Amazing grace - Deja Vu
TTITLE13=Noapte de Craciun - Capuccino
EXTD=
EXTT0=
EXTT1=
EXTT2=
EXTT3=
EXTT4=
EXTT5=
EXTT6=
EXTT7=
EXTT8=
EXTT9=
EXTT10=
EXTT11=
EXTT12=
EXTT13=
PLAYORDER=
